<?xml version="1.0" encoding="UTF-8" standalone="no"?>
<svg width="190px" height="75px" viewBox="0 0 190 75" version="1.1" xmlns="http://www.w3.org/2000/svg" xmlns:xlink="http://www.w3.org/1999/xlink" xmlns:sketch="http://www.bohemiancoding.com/sketch/ns">
    <!-- Generator: Sketch 3.3.2 (12043) - http://www.bohemiancoding.com/sketch -->
    <title>Group</title>
    <desc>Created with Sketch.</desc>
    <defs></defs>
    <g id="Page-1" stroke="none" stroke-width="1" fill="none" fill-rule="evenodd" sketch:type="MSPage">
        <g id="Tela-de-apresentação" sketch:type="MSArtboardGroup" transform="translate(-85.000000, -48.000000)">
            <g id="Group" sketch:type="MSLayerGroup" transform="translate(85.000000, 48.000000)">
                <path d="M13.8610377,13.5205357 L62.7358491,13.5205357 L62.7358491,60.6071429 L13.8610377,60.6071429 L13.8610377,13.5205357 Z" id="Fill-1" fill="#FFFFFF" sketch:type="MSShapeGroup"></path>
                <path d="M95.6900943,25.1866071 C95.7806132,24.1526786 96.3712264,23.5785714 97.4135377,23.5785714 L105.588915,23.5785714 C110.52533,23.5785714 113.85033,26.1044643 113.457783,30.5821429 C113.236415,33.1089286 111.810519,35.2901786 109.629104,36.4 L109.623726,36.4767857 C112.514953,37.3571429 113.699764,40.1125 113.457783,42.86875 C112.980991,48.3035714 108.407547,50.7526786 103.316981,50.7526786 L95.0259906,50.7526786 C93.9845755,50.7526786 93.4925472,50.2169643 93.5866509,49.1446429 L95.6900943,25.1866071 L95.6900943,25.1866071 Z M104.076085,46.5044643 C106.621368,46.5044643 108.193349,44.8589286 108.395,42.5616071 C108.59217,40.3044643 107.272925,38.6580357 104.766179,38.6580357 L99.4434906,38.6580357 L98.7542925,46.5044643 L104.076085,46.5044643 L104.076085,46.5044643 Z M104.652358,34.6776786 C106.811368,34.6776786 108.141368,33.1473214 108.313443,31.1955357 C108.483726,29.2428571 107.453066,27.8267857 105.139009,27.8267857 L100.394387,27.8267857 L99.7930189,34.6776786 L104.652358,34.6776786 L104.652358,34.6776786 Z" id="Fill-2" fill="#FFFFFF" sketch:type="MSShapeGroup"></path>
                <path d="M125.870519,30.7741071 C131.462075,30.7741071 134.238585,34.7160714 133.768962,40.0741071 C133.694575,40.9169643 132.891557,41.7205357 131.927217,41.7205357 L119.933915,41.7205357 C119.933915,45.2410714 122.394953,47.0785714 125.364151,47.0785714 C127.177217,47.0785714 128.741132,46.3892857 129.717123,45.8151786 C130.721792,45.35625 131.404717,45.4714286 131.829528,46.3517857 L132.224764,47.1169643 C132.611038,47.9973214 132.388774,48.7625 131.497028,49.2598214 C130.153585,50.0633929 127.739151,51.2116071 124.653443,51.2116071 C118.136981,51.2116071 114.497406,46.5419643 114.984057,40.9928571 C115.511934,34.9848214 119.97066,30.7741071 125.870519,30.7741071 L125.870519,30.7741071 Z M129.023443,38.7732143 C129.18566,36.0553571 127.668349,34.4482143 125.431368,34.4482143 C122.924623,34.4482143 120.999528,36.1705357 120.307642,38.7732143 L129.023443,38.7732143 L129.023443,38.7732143 Z" id="Fill-3" fill="#FFFFFF" sketch:type="MSShapeGroup"></path>
                <path d="M139.051321,37.8169643 L140.069434,26.2196429 L146.472075,26.2196429 C150.058774,26.2196429 152.225849,28.325 151.905896,31.9607143 C151.583255,35.6348214 149.039764,37.8169643 145.414528,37.8169643 L139.051321,37.8169643 M146.988302,23.8464286 L138.54316,23.8464286 C137.926557,23.8464286 137.586887,24.1910714 137.533113,24.8035714 L135.338255,49.7964286 C135.284481,50.4080357 135.563208,50.7526786 136.179811,50.7526786 L136.99,50.7526786 C137.568066,50.7526786 137.945377,50.4080357 137.999151,49.7964286 L138.8425,40.1892857 L145.552547,40.1892857 C150.411887,40.1892857 154.204717,36.9741071 154.644764,31.9607143 C155.081226,26.9848214 151.847642,23.8464286 146.988302,23.8464286" id="Fill-4" fill="#FFFFFF" sketch:type="MSShapeGroup"></path>
                <path d="M159.674387,49.0303571 C156.782264,49.0303571 155.519481,47.1544643 155.677217,45.35625 C156.057217,41.03125 162.199057,40.9169643 165.24533,40.9169643 L166.325283,40.9169643 L166.244623,41.8348214 C165.948868,45.2026786 163.415236,49.0303571 159.674387,49.0303571 M162.604151,31.0419643 C159.596415,31.0419643 157.341509,32.1133929 156.285755,32.7258929 C155.756981,33.0321429 155.635991,33.5294643 155.900377,34.0267857 L156.09934,34.4107143 C156.28934,34.7214286 156.524151,34.86875 156.81184,34.86875 C156.983019,34.86875 157.173019,34.8160714 157.383632,34.7160714 C158.3175,34.1803571 160.046321,33.3767857 162.20533,33.3767857 C164.944198,33.3767857 166.877358,34.6392857 166.550236,38.3517857 L166.497358,38.9642857 L165.378868,38.9642857 C161.638019,38.9642857 153.508349,39.3089286 152.958066,45.5857143 C152.63184,49.2982143 155.741745,51.2116071 159.020142,51.2116071 C163.840943,51.2116071 166.000849,46.8107143 165.962311,46.8107143 L166.040283,46.8107143 C166.040283,46.8107143 165.872689,47.3848214 165.796509,48.2651786 L165.661179,49.7964286 C165.603821,50.4464286 165.92467,50.7526786 166.541274,50.7526786 L167.158774,50.7526786 C167.776274,50.7526786 168.114151,50.4080357 168.167925,49.7964286 L169.166321,38.4285714 C169.590236,33.60625 167.231368,31.0419643 162.604151,31.0419643" id="Fill-5" fill="#FFFFFF" sketch:type="MSShapeGroup"></path>
                <path d="M188.614434,31.5008929 L187.766604,31.5008929 C187.187642,31.5008929 186.858726,31.73125 186.619434,32.2669643 L180.131651,45.5473214 C179.661132,46.5044643 179.297264,47.5758929 179.297264,47.5758929 L179.220189,47.5758929 C179.220189,47.5758929 178.967453,46.5044643 178.703962,45.5473214 L174.436132,32.2285714 C174.287358,31.73125 173.99967,31.5008929 173.420708,31.5008929 L172.533443,31.5008929 C171.839764,31.5008929 171.491132,31.9607143 171.702642,32.6107143 L177.758443,50.5991071 L176.363915,53.3169643 C175.482925,55.0008929 174.195047,56.49375 172.459953,56.49375 C171.766274,56.49375 171.214198,56.1875 170.806415,55.9955357 C170.685425,55.9544643 170.56533,55.9330357 170.447925,55.9330357 C170.131557,55.9330357 169.838491,56.0919643 169.609057,56.4553571 L169.341085,56.8767857 C169.068632,57.3357143 169.177075,57.8714286 169.657453,58.1008929 C170.24717,58.4071429 171.139811,58.7901786 172.258302,58.7901786 C174.842123,58.7901786 176.991274,57.1446429 178.21283,54.65625 L189.288396,32.6107143 C189.580566,31.9223214 189.309009,31.5008929 188.614434,31.5008929" id="Fill-6" fill="#FFFFFF" sketch:type="MSShapeGroup"></path>
                <path d="M22.0812264,4.51517857 L36.0928302,2.05446429 L25.8848113,0.261607143 C16.9315094,-1.31071429 8.39674528,4.62142857 6.77099057,13.5205357 C10.4822642,8.93839286 15.8040566,5.61785714 22.0812264,4.51517857" id="Fill-7" fill="#2BA4DD" sketch:type="MSShapeGroup"></path>
                <path d="M52.9060377,69.6080357 L38.894434,72.0696429 L49.1006604,73.8625 C58.0521698,75.4348214 66.5860377,69.5044643 68.2117925,60.6071429 C64.5014151,65.1866071 59.1805189,68.5053571 52.9060377,69.6080357" id="Fill-8" fill="#2BA4DD" sketch:type="MSShapeGroup"></path>
                <path d="M61.124434,6.45625 C65.7229717,10.1535714 69.0551415,15.4553571 70.1619811,21.7080357 L72.6319811,35.6633929 L74.4316038,25.4982143 C76.0098585,16.5794643 70.0562264,8.07678571 61.124434,6.45625" id="Fill-9" fill="#2BA4DD" sketch:type="MSShapeGroup"></path>
                <path d="M4.82259434,52.41875 L2.35259434,38.4544643 L0.552971698,48.6267857 C-1.02617925,57.5455357 4.92834906,66.0473214 13.8610377,67.6678571 C9.2625,63.9705357 5.92943396,58.6705357 4.82259434,52.41875" id="Fill-10" fill="#2BA4DD" sketch:type="MSShapeGroup"></path>
                <path d="M6.77099057,13.5205357 C2.33198113,19.0008929 0.199858491,26.2866071 1.52358491,33.7660714 L2.35259434,38.4544643 L6.75037736,13.6089286 L6.77099057,13.5205357" id="Fill-11" fill="#2BA4DD" sketch:type="MSShapeGroup"></path>
                <path d="M61.124434,6.45625 C55.6242925,2.03392857 48.3101887,-0.0919642857 40.8016038,1.22767857 L36.0928302,2.05446429 L61.0339151,6.43571429 L61.124434,6.45625" id="Fill-12" fill="#2BA4DD" sketch:type="MSShapeGroup"></path>
                <path d="M68.2117925,60.6071429 C72.6534906,55.1276786 74.7874057,47.8401786 73.4636792,40.3589286 L72.6319811,35.6633929 L68.2333019,60.5160714 L68.2117925,60.6071429" id="Fill-13" fill="#2BA4DD" sketch:type="MSShapeGroup"></path>
                <path d="M13.8610377,67.6678571 C19.3620755,72.0901786 26.6761792,74.2160714 34.1847642,72.8964286 L38.894434,72.0696429 L13.9506604,67.6883929 L13.8610377,67.6678571" id="Fill-14" fill="#2BA4DD" sketch:type="MSShapeGroup"></path>
                <path d="M55.4307075,31.6366071 C55.4307075,28.0901786 52.5493396,25.2160714 48.9886321,25.2160714 C45.4288208,25.2160714 42.5447642,28.0901786 42.5447642,31.6366071 C42.5447642,35.1803571 45.4288208,38.0544643 48.9886321,38.0544643 C52.5493396,38.0544643 55.4307075,35.1803571 55.4307075,31.6366071" id="Fill-15" fill="#146EA4" sketch:type="MSShapeGroup"></path>
                <path d="M26.6313679,25.1410714 C23.0706604,25.1410714 20.1866038,28.0169643 20.1866038,31.5616071 C20.1866038,35.1053571 23.0706604,37.9821429 26.6313679,37.9821429 C30.1893868,37.9821429 33.0752358,35.1053571 33.0752358,31.5616071 C33.0752358,28.0169643 30.1893868,25.1410714 26.6313679,25.1410714" id="Fill-16" fill="#146EA4" sketch:type="MSShapeGroup"></path>
                <path d="M70.1619811,21.7080357 C69.0551415,15.4553571 65.7229717,10.1535714 61.124434,6.45625 L61.0339151,6.43571429 L36.0928302,2.05446429 L22.0812264,4.51517857 C15.8040566,5.61785714 10.4822642,8.93839286 6.77099057,13.5205357 L6.75037736,13.6089286 L2.35259434,38.4544643 L4.82259434,52.41875 C5.92943396,58.6705357 9.2625,63.9705357 13.8610377,67.6678571 L13.9506604,67.6883929 L38.894434,72.0696429 L52.9060377,69.6080357 C59.1805189,68.5053571 64.5014151,65.1866071 68.2117925,60.6071429 L68.2333019,60.5160714 L72.6319811,35.6633929 L70.1619811,21.7080357 L70.1619811,21.7080357 Z M26.5372642,41.2375 C24.0421698,41.2375 21.6806132,40.2928571 19.9598585,38.7526786 C19.8200472,39.5080357 19.3477358,40.08125 18.5483019,40.08125 C17.6466981,40.08125 17.0283019,39.3535714 17.0283019,38.45625 L17.0283019,17.4482143 C17.0283019,16.5526786 17.5015094,15.8258929 18.4031132,15.8258929 C19.3038208,15.8258929 19.7169811,16.5526786 19.7169811,17.4482143 L19.7169811,24.3419643 C21.509434,22.8178571 23.920283,21.8848214 26.4010377,21.8848214 C31.7667453,21.8848214 36.1824528,26.2160714 36.1824528,31.5616071 C36.1824528,36.9044643 31.9029717,41.2375 26.5372642,41.2375 L26.5372642,41.2375 Z M42.1226415,45.7267857 C42.1226415,46.625 41.6781132,47.3482143 40.7765094,47.3482143 C39.8758019,47.3482143 39.4339623,46.625 39.4339623,45.7267857 L39.4339623,24.7160714 C39.4339623,23.81875 40.0882075,23.09375 40.9898113,23.09375 C41.7964151,23.09375 42.4148113,23.6758929 42.5465566,24.4419643 C44.2664151,22.9035714 46.5150472,21.9589286 49.0074528,21.9589286 C54.3722642,21.9589286 58.7117925,26.2910714 58.7117925,31.6366071 C58.7117925,36.9785714 54.1508962,41.3125 48.7860849,41.3125 C46.3071226,41.3125 43.9150943,40.3785714 42.1226415,38.8535714 L42.1226415,45.7267857 L42.1226415,45.7267857 Z M59.1509434,47.9910714 C59.1509434,53.5785714 54.4475472,58.125 48.8999057,58.125 C48.6946698,58.125 48.5432075,58.1276786 48.4983962,58.1321429 C48.3989151,58.1410714 48.2653774,58.1455357 48.1318396,58.1455357 C47.9758962,58.1455357 47.7303302,58.1392857 47.3449528,58.1241071 C46.4299057,58.0875 45.7066509,57.31875 45.7433962,56.4071429 C45.7801415,55.4955357 46.5589623,54.7946429 47.460566,54.8223214 C47.8764151,54.8392857 48.0269811,54.8464286 48.1076415,54.8419643 C48.1954717,54.8339286 48.3048113,54.8214286 48.7116981,54.8214286 C52.4928774,54.8214286 55.4549057,51.8214286 55.4549057,47.9910714 L55.4558019,47.7214286 C55.4925472,46.8392857 56.410283,46.1044643 57.3029245,46.1044643 C58.2179717,46.1044643 59.1509434,46.8089286 59.1509434,47.7214286 L59.1509434,47.9910714 L59.1509434,47.9910714 Z" id="Fill-17" fill="#146EA4" sketch:type="MSShapeGroup"></path>
            </g>
        </g>
    </g>
</svg>